<mxfile host="app.diagrams.net" modified="2021-06-03T01:45:02.823Z" agent="5.0 (X11)" etag="BIZIKteLyLpHt_AN12IR" version="14.7.4" type="github">
  <diagram id="l6fCE07UDBXVQ8sJ-tr_" name="第 1 页">
    <mxGraphModel dx="1350" dy="775" grid="1" gridSize="10" guides="1" tooltips="1" connect="1" arrows="1" fold="1" page="1" pageScale="1" pageWidth="827" pageHeight="1169" math="0" shadow="0">
      <root>
        <mxCell id="0" />
        <mxCell id="1" parent="0" />
        <mxCell id="xNdBRu5C_ZCSp0exdDyI-1" value="" style="rounded=0;whiteSpace=wrap;html=1;" vertex="1" parent="1">
          <mxGeometry x="310" y="260" width="120" height="60" as="geometry" />
        </mxCell>
      </root>
    </mxGraphModel>
  </diagram>
</mxfile>
